<svg   xmlns="http://www.w3.org/2000/svg"  viewBox="0 0 1024 1024"  width="200" height="200" ><path d="M384 490.67v42.66a21.33 21.33 0 01-21.33 21.34H256V640a21.33 21.33 0 01-36.27 14.93l-128-128a21.76 21.76 0 010-30.29l128-128A21.33 21.33 0 01256 384v85.33h106.67A21.33 21.33 0 01384 490.67zM384 256h85.33v106.67A21.33 21.33 0 00490.67 384h42.66a21.33 21.33 0 0021.34-21.33V256H640a21.33 21.33 0 0015.36-36.27l-128-128a21.76 21.76 0 00-30.3 0l-128 128A21.33 21.33 0 00384 256zm256 512h-85.33V661.33A21.33 21.33 0 00533.33 640h-42.66a21.33 21.33 0 00-21.34 21.33V768H384a21.33 21.33 0 00-14.93 36.27l128 128a21.76 21.76 0 0030.29 0l128-128A21.33 21.33 0 00640 768zm292.7-270.93l-128-128A21.33 21.33 0 00768 384v85.33H661.33A21.33 21.33 0 00640 490.67v42.66a21.33 21.33 0 0021.33 21.34H768V640a21.33 21.33 0 0036.27 14.93l128-128a21.76 21.76 0 00.42-29.86z"></path></svg>